<svg id="visual" viewBox="0 0 900 600" width="900" height="600" xmlns="http://www.w3.org/2000/svg" xmlns:xlink="http://www.w3.org/1999/xlink" version="1.1"><path d="M0 513L18.8 516C37.7 519 75.3 525 112.8 526C150.3 527 187.7 523 225.2 522.8C262.7 522.7 300.3 526.3 337.8 525.2C375.3 524 412.7 518 450.2 513.8C487.7 509.7 525.3 507.3 562.8 505.8C600.3 504.3 637.7 503.7 675.2 507.3C712.7 511 750.3 519 787.8 519C825.3 519 862.7 511 881.3 507L900 503L900 601L881.3 601C862.7 601 825.3 601 787.8 601C750.3 601 712.7 601 675.2 601C637.7 601 600.3 601 562.8 601C525.3 601 487.7 601 450.2 601C412.7 601 375.3 601 337.8 601C300.3 601 262.7 601 225.2 601C187.7 601 150.3 601 112.8 601C75.3 601 37.7 601 18.8 601L0 601Z" fill="#4158d0"></path><path d="M0 527L18.8 526C37.7 525 75.3 523 112.8 523.3C150.3 523.7 187.7 526.3 225.2 528.8C262.7 531.3 300.3 533.7 337.8 533.2C375.3 532.7 412.7 529.3 450.2 528.7C487.7 528 525.3 530 562.8 530.5C600.3 531 637.7 530 675.2 528.7C712.7 527.3 750.3 525.7 787.8 526.7C825.3 527.7 862.7 531.3 881.3 533.2L900 535L900 601L881.3 601C862.7 601 825.3 601 787.8 601C750.3 601 712.7 601 675.2 601C637.7 601 600.3 601 562.8 601C525.3 601 487.7 601 450.2 601C412.7 601 375.3 601 337.8 601C300.3 601 262.7 601 225.2 601C187.7 601 150.3 601 112.8 601C75.3 601 37.7 601 18.8 601L0 601Z" fill="#7c56ce"></path><path d="M0 563L18.8 562.2C37.7 561.3 75.3 559.7 112.8 558C150.3 556.3 187.7 554.7 225.2 552.7C262.7 550.7 300.3 548.3 337.8 550.7C375.3 553 412.7 560 450.2 562.5C487.7 565 525.3 563 562.8 559C600.3 555 637.7 549 675.2 547.8C712.7 546.7 750.3 550.3 787.8 554.3C825.3 558.3 862.7 562.7 881.3 564.8L900 567L900 601L881.3 601C862.7 601 825.3 601 787.8 601C750.3 601 712.7 601 675.2 601C637.7 601 600.3 601 562.8 601C525.3 601 487.7 601 450.2 601C412.7 601 375.3 601 337.8 601C300.3 601 262.7 601 225.2 601C187.7 601 150.3 601 112.8 601C75.3 601 37.7 601 18.8 601L0 601Z" fill="#a652c9"></path><path d="M0 572L18.8 572.8C37.7 573.7 75.3 575.3 112.8 575.7C150.3 576 187.7 575 225.2 575.7C262.7 576.3 300.3 578.7 337.8 579.5C375.3 580.3 412.7 579.7 450.2 577C487.7 574.3 525.3 569.7 562.8 568.2C600.3 566.7 637.7 568.3 675.2 570.2C712.7 572 750.3 574 787.8 574.5C825.3 575 862.7 574 881.3 573.5L900 573L900 601L881.3 601C862.7 601 825.3 601 787.8 601C750.3 601 712.7 601 675.2 601C637.7 601 600.3 601 562.8 601C525.3 601 487.7 601 450.2 601C412.7 601 375.3 601 337.8 601C300.3 601 262.7 601 225.2 601C187.7 601 150.3 601 112.8 601C75.3 601 37.7 601 18.8 601L0 601Z" fill="#c850c0"></path></svg>